<svg xmlns="http://www.w3.org/2000/svg" width="208.3" height="27.7"><rect id="backgroundrect" width="100%" height="100%" x="0" y="0" fill="none" stroke="none"/><g class="currentLayer" style=""><title>Layer 1</title><path d="M0,23.375362312793733 h11.7 c5.5,0 8.7,-2.3 8.7,-6.8 c0,-2.8 -1.7000000000000002,-4.5 -4.1,-5.3 c2,-0.9 3.4,-2.6 3.4,-5.3 c0,-3.5 -2.2,-5.9 -7.5,-5.9 H0 V23.375362312793733 zM13.1,7.175362312793732 c0,1.6 -1,2.4 -3.2,2.4 H6.4 V4.775362312793732 h3.5 C12.1,4.775362312793732 13.1,5.5753623127937315 13.1,7.175362312793732 zM13.8,16.17536231279373 c0,1.7000000000000002 -1,2.4 -3.3,2.4 H6.4 v-4.9 h4.2 C12.8,13.675362312793732 13.8,14.475362312793731 13.8,16.17536231279373 z" id="svg_1" class="" fill-opacity="1" fill="#f9cdcd"/><path d="M38.2,23.375362312793733 h6.7 L36.8,-0.024637687206268244 h-8.4 l-8.1,23.4 h6.5 l1.2,-3.8 h9.1 L38.2,23.375362312793733 zM32.5,5.175362312793732 l2.9,9.5 h-5.9 L32.5,5.175362312793732 z" id="svg_2" class="" fill-opacity="1" fill="#f9cdcd"/><path d="M55.1,23.77536231279373 c6.3,0 10.3,-3 10.3,-7.7 c0,-3.8 -2.5,-5.8 -6.5,-6.6 l-5.1,-1 c-2,-0.4 -2.6,-1 -2.6,-2.1 S52.4,4.275362312793732 54.5,4.275362312793732 c2.4,0 4.1,1 4.2,3.1 H65 c0,-5.6 -4.7,-7.8 -10.5,-7.8 c-5.6,0 -9.7,2.8 -9.7,7.3 c0,3.8 2.5,5.8 6.5,6.6 l5.1,1 c2,0.4 2.6,1 2.6,2.1 c0,1.5 -1.4,2.3 -3.7,2.3 c-2.6,0 -4.5,-1.3 -4.6,-3.8 h-6.3 C44.6,20.575362312793732 48.1,23.77536231279373 55.1,23.77536231279373 z" id="svg_3" class="" fill-opacity="1" fill="#f9cdcd"/><path d="M67.3,23.375362312793733 h6.4 V-0.024637687206268244 h-6.4 V23.375362312793733 z" id="svg_4" class="" fill-opacity="1" fill="#f9cdcd"/><path d="M82,11.675362312793732 c0,-3.9 2.1,-6.8 5.6,-6.8 c2.9,0 4.7,1.7000000000000002 5.1,3.7 h6.7 c-0.6000000000000001,-6.1 -5.8,-9.1 -11.7,-9.1 C80,-0.5246376872062684 75.4,4.275362312793732 75.4,11.575362312793732 s4.5,12.1 12.3,12.1 c6,0 11.2,-2.9 11.8,-9.1 h-6.7 c-0.4,2.1 -2.1,3.7 -5.1,3.7 C84.1,18.47536231279373 82,15.575362312793732 82,11.675362312793732 z" id="svg_5" class="" fill-opacity="1" fill="#f9cdcd"/><path d="M113.7,-0.7246376872062683 h-5.2 l-10,27.7 h5.2 L113.7,-0.7246376872062683 z" id="svg_6" class="" fill-opacity="1" fill="#f9cdcd"/><path d="M137.8,11.675362312793732 c0,-6.6 -3.6,-11.7 -12.8,-11.7 h-9.8 v23.4 h9.8 C134.2,23.375362312793733 137.8,18.27536231279373 137.8,11.675362312793732 zM131.2,11.675362312793732 c0,4.6 -2.6,6.3 -6.2,6.3 h-3.3 V5.375362312793731 h3.3 C128.6,5.375362312793731 131.2,7.0753623127937315 131.2,11.675362312793732 z" id="svg_7" class="" fill-opacity="1" fill="#f9cdcd"/><path d="M139.5,23.375362312793733 H158 v-5.3 h-12.2 v-4 h10.7 V8.975362312793731 h-10.7 V5.375362312793731 h11.9 V-0.024637687206268244 h-18.2 V23.375362312793733 z" id="svg_8" class="" fill-opacity="1" fill="#f9cdcd"/><path d="M180,8.175362312793732 c0,-5.9 -3.8,-8.1 -9.6,-8.1 h-10.1 v23.4 h6.4 V16.27536231279373 h3.8 C176.2,16.27536231279373 180,14.075362312793732 180,8.175362312793732 zM173.4,8.175362312793732 c0,2.3 -1.1,3.2 -3.7,3.2 h-3.1 V4.875362312793731 h3.1 C172.3,4.875362312793731 173.4,5.875362312793731 173.4,8.175362312793732 z" id="svg_9" class="" fill-opacity="1" fill="#f9cdcd"/><path d="M181,5.475362312793732 h7.4 v17.9 h6.4 V5.475362312793732 h7.4 V-0.024637687206268244 H181 V5.475362312793732 z" id="svg_10" class="" fill-opacity="1" fill="#f9cdcd"/><path d="M203.5,23.7c-2.6,0-4.8-2.1-4.8-4.8c0-2.6,2.1-4.8,4.8-4.8s4.8,2.1,4.8,4.8C208.3,21.5,206.1,23.7,203.5,23.7z M203.5,14.9 c-2.2,0-4,1.8-4,4s1.8,4,4,4s4-1.8,4-4S205.7,14.9,203.5,14.9z" id="svg_11" class="" fill-opacity="1" fill="#f9cdcd"/><path d="M204,17.2h-1.4v1.6h1.4c0.5,0,0.7-0.3,0.7-0.8C204.7,17.5,204.4,17.2,204,17.2z M203.9,16.4c1.2,0,1.8,0.5,1.8,1.6 c0,0.6-0.3,1.1-0.9,1.3l1.2,1.8h-1.2l-1.1-1.6h-1.2v1.6h-1.1v-4.7H203.9z" id="svg_12" class="" fill-opacity="1" fill="#f9cdcd"/></g></svg>