<svg xmlns="http://www.w3.org/2000/svg" width="307" height="100"><rect id="backgroundrect" width="100%" height="100%" x="0" y="0" fill="none" stroke="none"/><g class="currentLayer" style=""><title>Layer 1</title><path d="M0,87.52463768720627 h41.9 c19.6,0 31.3,-8.3 31.3,-24.5 c0,-10.2 -6,-16.2 -15.1,-19.2 c7.2,-3.4 12.1,-9.4 12.1,-19.2 c0,-12.5 -7.9,-21.5 -27.2,-21.5 H0 V87.52463768720627 zM47.2,29.02463768720627 c0,5.7 -3.8,8.7 -11.7,8.7 H23 V20.32463768720627 h12.5 C43.8,20.32463768720627 47.2,23.32463768720627 47.2,29.02463768720627 zM49.8,61.524637687206265 c0,6 -3.8,8.7 -12.1,8.7 H22.6 V52.42463768720627 h15.1 C46,52.82463768720627 49.8,55.42463768720627 49.8,61.524637687206265 zM128.3,0.7246376872062683 h-18.9 L73.6,100.72463768720627 h18.5 L128.3,0.7246376872062683 zM216.6,45.22463768720627 c0,-23.8 -12.8,-42.3 -46,-42.3 h-35.5 v84.5 h35.5 C203.4,87.52463768720627 216.6,69.02463768720627 216.6,45.22463768720627 zM192.5,45.22463768720627 c0,16.6 -9.4,22.6 -22.3,22.6 h-12.1 V22.624637687206267 h12.1 C183,22.624637687206267 192.5,28.624637687206267 192.5,45.22463768720627 z" id="svg_1" class="selected" fill-opacity="1" fill="#f4f4f4"/><path d="M224.2,46.4c0,22.6,18.5,41.1,41.1,41.1c22.6,0,41.1-18.5,41.1-41.1S287.9,5.3,265.3,5.3C242.6,5.3,224.2,23.8,224.2,46.4z M232.1,46.4c0-18.9,14.7-34,33.2-34c18.5,0,33.2,15.1,33.2,34s-15.1,34-33.2,34C246.8,80,232.1,64.9,232.1,46.4z M246,66.8h12.8 v-14h7.5l7.5,14h14l-9.4-16.6c4.2-1.9,7.5-6.8,7.5-12.1c0-9.4-6-14-16.6-14h-23.8v42.6H246z M272.8,38.1c0,3.4-2.3,4.9-6.4,4.9h-7.9 V34h7.9C270.9,34.3,272.8,35.1,272.8,38.1z" id="svg_2" class="selected" fill-opacity="1" fill="#f4f4f4"/></g></svg>