<svg xmlns="http://www.w3.org/2000/svg" width="110.58823527761808" height="54"><rect id="backgroundrect" width="100%" height="100%" x="0" y="0" fill="none" stroke="none" class="selected" style=""/><g class="currentLayer" style=""><title>Layer 1</title><path d="M0,23.90000114440918 h11.7 c5.5,0 8.7,-2.3 8.7,-6.8 c0,-2.8 -1.7000000000000002,-4.5 -4.1,-5.3 c2,-0.9 3.4,-2.6 3.4,-5.3 c0,-3.5 -2.2,-5.9 -7.5,-5.9 H0 V23.90000114440918 zM13.1,7.70000114440918 c0,1.6 -1,2.4 -3.2,2.4 H6.4 V5.30000114440918 h3.5 C12.1,5.30000114440918 13.1,6.1000011444091795 13.1,7.70000114440918 zM13.8,16.70000114440918 c0,1.7000000000000002 -1,2.4 -3.3,2.4 H6.4 v-4.9 h4.2 C12.8,14.20000114440918 13.8,15.000001144409179 13.8,16.70000114440918 z" id="svg_1" class=""/><path d="M38.2,23.90000114440918 h6.7 L36.8,0.5000011444091799 h-8.4 l-8.1,23.4 h6.5 l1.2,-3.8 h9.1 L38.2,23.90000114440918 zM32.5,5.70000114440918 l2.9,9.5 h-5.9 L32.5,5.70000114440918 z" id="svg_2" class=""/><path d="M55.1,24.30000114440918 c6.3,0 10.3,-3 10.3,-7.7 c0,-3.8 -2.5,-5.8 -6.5,-6.6 l-5.1,-1 c-2,-0.4 -2.6,-1 -2.6,-2.1 S52.4,4.80000114440918 54.5,4.80000114440918 c2.4,0 4.1,1 4.2,3.1 H65 c0,-5.6 -4.7,-7.8 -10.5,-7.8 c-5.6,0 -9.7,2.8 -9.7,7.3 c0,3.8 2.5,5.8 6.5,6.6 l5.1,1 c2,0.4 2.6,1 2.6,2.1 c0,1.5 -1.4,2.3 -3.7,2.3 c-2.6,0 -4.5,-1.3 -4.6,-3.8 h-6.3 C44.6,21.10000114440918 48.1,24.30000114440918 55.1,24.30000114440918 z" id="svg_3" class=""/><path d="M67.3,23.90000114440918 h6.4 V0.5000011444091799 h-6.4 V23.90000114440918 z" id="svg_4" class=""/><path d="M82,12.20000114440918 c0,-3.9 2.1,-6.8 5.6,-6.8 c2.9,0 4.7,1.7000000000000002 5.1,3.7 h6.7 c-0.6000000000000002,-6.1 -5.8,-9.1 -11.7,-9.1 C80,0.0000011444091796986022 75.4,4.80000114440918 75.4,12.10000114440918 s4.5,12.1 12.3,12.1 c6,0 11.2,-2.9 11.8,-9.1 h-6.7 c-0.4,2.1 -2.1,3.7 -5.1,3.7 C84.1,19.00000114440918 82,16.10000114440918 82,12.20000114440918 z" id="svg_5" class=""/><path d="M15.75882263183594,25.976470947265625 h-5.2 l-10,27.7 h5.2 L15.75882263183594,25.976470947265625 z" id="svg_6" class=""/><path d="M39.85882263183595,38.376470947265624 c0,-6.6 -3.6,-11.7 -12.8,-11.7 h-9.8 v23.4 h9.8 C36.258822631835926,50.076470947265626 39.85882263183595,44.976470947265625 39.85882263183595,38.376470947265624 zM33.258822631835926,38.376470947265624 c0,4.6 -2.6,6.3 -6.2,6.3 h-3.3 V32.076470947265626 h3.3 C30.658822631835932,32.076470947265626 33.258822631835926,33.77647094726562 33.258822631835926,38.376470947265624 z" id="svg_7" class=""/><path d="M41.55882263183594,50.076470947265626 H60.05882263183594 v-5.3 h-12.2 v-4 h10.7 V35.67647094726563 h-10.7 V32.076470947265626 h11.9 V26.676470947265624 h-18.2 V50.076470947265626 z" id="svg_8" class=""/><path d="M82.05882263183594,34.876470947265624 c0,-5.9 -3.8,-8.1 -9.6,-8.1 h-10.1 v23.4 h6.4 V42.976470947265625 h3.8 C78.25882263183593,42.976470947265625 82.05882263183594,40.77647094726562 82.05882263183594,34.876470947265624 zM75.45882263183594,34.876470947265624 c0,2.3 -1.1,3.2 -3.7,3.2 h-3.1 V31.576470947265626 h3.1 C74.35882263183595,31.576470947265626 75.45882263183594,32.576470947265626 75.45882263183594,34.876470947265624 z" id="svg_9" class=""/><path d="M83.05882263183594,32.17647094726563 h7.4 v17.9 h6.4 V32.17647094726563 h7.4 V26.676470947265624 H83.05882263183594 V32.17647094726563 z" id="svg_10" class=""/><path d="M105.55882263183594,49.67647094726563 c-2.6,0 -4.8,-2.1 -4.8,-4.8 c0,-2.6 2.1,-4.8 4.8,-4.8 s4.8,2.1 4.8,4.8 C110.35882263183595,47.476470947265625 108.15882263183593,49.67647094726563 105.55882263183594,49.67647094726563 zM105.55882263183594,40.876470947265624 c-2.2,0 -4,1.8 -4,4 s1.8,4 4,4 s4,-1.8 4,-4 S107.75882263183593,40.876470947265624 105.55882263183594,40.876470947265624 z" id="svg_11" class=""/><path d="M106.05882263183594,43.17647094726563 h-1.4 v1.6 h1.4 c0.5,0 0.7000000000000003,-0.30000000000000016 0.7000000000000003,-0.8 C106.75882263183593,43.476470947265625 106.45882263183594,43.17647094726563 106.05882263183594,43.17647094726563 zM105.95882263183594,42.376470947265624 c1.2,0 1.8,0.5 1.8,1.6 c0,0.6000000000000003 -0.30000000000000016,1.1 -0.9,1.3 l1.2,1.8 h-1.2 l-1.1,-1.6 h-1.2 v1.6 h-1.1 v-4.7 H105.95882263183594 z" id="svg_12" class=""/></g></svg>